Coordinates
version=1
nRows=10
nColumns=40
inDegrees=yes

Units are S.I. units (second, meters, Newtons, ...)
Angles are in degrees.

endheader
time	pelvis_tilt	pelvis_list	pelvis_rotation	pelvis_tx	pelvis_ty	pelvis_tz	hip_flexion_r	hip_adduction_r	hip_rotation_r	knee_angle_r	knee_angle_r_beta	ankle_angle_r	subtalar_angle_r	mtp_angle_r	hip_flexion_l	hip_adduction_l	hip_rotation_l	knee_angle_l	knee_angle_l_beta	ankle_angle_l	subtalar_angle_l	mtp_angle_l	lumbar_extension	lumbar_bending	lumbar_rotation	arm_flex_r	arm_add_r	arm_rot_r	elbow_flex_r	pro_sup_r	wrist_flex_r	wrist_dev_r	arm_flex_l	arm_add_l	arm_rot_l	elbow_flex_l	pro_sup_l	wrist_flex_l	wrist_dev_l
      0.90000000	     -0.97595298	     -6.12399610	      0.84207499	     -0.94722562	      0.90250179	      1.42596059	      7.79013462	      8.11338210	    -18.68175184	    -16.73738078	     -0.29212240	      6.00501373	      5.48113639	     -4.30098443	     12.43767553	      9.67693269	      6.66902909	    -56.56728604	     -0.98728539	      1.85112977	      7.18849773	    -10.18722496	     -8.73117987	      7.64680717	      1.27258649	      8.17424717	    -10.70304872	     18.87756092	     16.77198341	     89.95437384	      0.00000000	      0.00000000	      7.39266646	      8.86695240	    -15.35961733	     19.13386359	     89.95437384	      0.00000000	      0.00000000
      0.91000000	     -0.92032767	     -5.89935220	      0.61670717	     -0.93903670	      0.90279139	      1.42682314	      7.16213532	      7.94744404	    -18.54862303	    -16.81901716	     -0.29354723	      6.29263704	      5.35482633	     -4.26692801	     13.64754365	      9.17945975	      6.30080408	    -56.45322057	     -0.98529457	      2.28179215	      6.83215538	    -10.12793461	     -8.75342598	      7.31236895	      1.82422421	      8.66829854	    -10.81633183	     19.01890566	     16.87973814	     89.95437384	      0.00000000	      0.00000000	      6.75302551	      8.83652441	    -15.22466305	     19.02012548	     89.95437384	      0.00000000	      0.00000000
      0.92000000	     -0.77778029	     -5.65305609	      0.56603991	     -0.93104064	      0.90320416	      1.42724773	      6.35909137	      7.78845433	    -18.05750743	    -16.73799273	     -0.29213308	      6.89938656	      5.50444210	     -4.31694289	     14.73190631	      8.50270358	      5.60439191	    -56.05944556	     -0.97842190	      3.08413612	      6.32355377	    -10.32922066	     -8.86909077	      6.99774991	      1.98412150	      9.30238854	    -10.87544517	     19.36807740	     16.91053516	     89.95437384	      0.00000000	      0.00000000	      6.09099107	      8.81265961	    -14.84712907	     18.86376250	     89.95437384	      0.00000000	      0.00000000
      0.93000000	     -0.76593837	     -5.50797594	      0.38052932	     -0.92298886	      0.90336210	      1.42795325	      5.81951372	      7.66716538	    -17.99324994	    -16.90667076	     -0.29507707	      6.99819795	      5.37866488	     -4.27048591	     15.92634216	      8.10213697	      5.32642788	    -55.46616701	     -0.96806724	      3.31019681	      5.96658113	    -10.27226988	     -8.82536436	      6.77963601	      2.45675654	      9.71619080	    -11.05446421	     19.34387399	     17.22077846	     89.95437384	      0.00000000	      0.00000000	      5.38897413	      8.80737978	    -14.67724649	     18.93253752	     89.95437384	      0.00000000	      0.00000000
      0.94000000	     -0.63073076	     -5.19358363	      0.36474585	     -0.91478634	      0.90356944	      1.42818813	      4.97861794	      7.43997297	    -17.54217879	    -16.70412962	     -0.29154206	      7.55006455	      5.57986336	     -4.32474503	     16.90746446	      7.36645212	      4.75677890	    -54.63263817	     -0.95351942	      4.18665601	      5.37156869	    -10.56810567	     -8.89242609	      6.39710807	      2.56722809	     10.35637093	    -11.08441695	     19.43505947	     17.18802458	     89.95437384	      0.00000000	      0.00000000	      4.74464055	      8.77487647	    -14.26747020	     18.73373940	     89.95437384	      0.00000000	      0.00000000
      0.95000000	     -0.36551960	     -4.93427492	      0.30728369	     -0.90652358	      0.90388120	      1.42848319	      4.07522072	      7.20277964	    -17.37032566	    -16.72734989	     -0.29194733	      8.13039093	      5.52652626	     -4.37415344	     17.62058583	      6.76224742	      4.40499381	    -53.54362750	     -0.93451259	      4.82020049	      4.83329835	    -10.91283749	     -9.12195756	      6.05858982	      2.71457250	     10.94854548	    -11.13344812	     19.44875967	     17.30593307	     89.95437384	      0.00000000	      0.00000000	      4.04302681	      8.73418756	    -13.77767794	     18.70257310	     89.95437384	      0.00000000	      0.00000000
      0.96000000	      0.14105690	     -4.64638617	      0.18924814	     -0.89787283	      0.90461349	      1.42880017	      2.78702870	      6.93285957	    -17.32335148	    -16.53613091	     -0.28860993	      8.35515160	      5.73655574	     -4.51542538	     17.85034728	      6.20909113	      4.34332091	    -51.95442433	     -0.90677577	      4.97126569	      4.68708154	    -12.28806546	     -9.63039285	      5.69858148	      2.89436787	     11.51770672	    -11.18497275	     19.44458472	     17.47362433	     89.95437384	      0.00000000	      0.00000000	      3.32321716	      8.61027963	    -12.65800118	     18.69192987	     89.95437384	      0.00000000	      0.00000000
      0.97000000	      0.05767109	     -4.62835291	      0.04500394	     -0.89009446	      0.90421310	      1.42964199	      2.32400438	      6.95567813	    -17.33304398	    -16.54569596	     -0.28877687	      8.67022909	      5.90799194	     -4.58396820	     18.96516354	      5.99701543	      4.13833336	    -50.70577774	     -0.88498277	      5.58394462	      4.31488245	    -12.49613840	     -9.53523176	      5.56188440	      3.14243983	     12.11660080	    -11.20659318	     19.29638349	     17.58408413	     89.95437384	      0.00000000	      0.00000000	      2.70264179	      8.65870952	    -12.64372989	     18.61818108	     89.95437384	      0.00000000	      0.00000000
      0.98000000	     -0.05421989	     -4.60171785	      0.00681180	     -0.88204871	      0.90362657	      1.43003251	      1.93110097	      6.96618845	    -17.32254289	    -16.67839024	     -0.29109282	      8.88005347	      5.75359276	     -4.56097432	     20.06700581	      5.83292002	      4.18715552	    -49.24300707	     -0.85945261	      5.75683111	      4.14767171	    -12.36497220	     -9.36369465	      5.47434075	      3.30876741	     12.53245888	    -11.31073337	     19.17154540	     17.90123386	     89.95437384	      0.00000000	      0.00000000	      2.07431258	      8.65699510	    -12.63756635	     18.57118206	     89.95437384	      0.00000000	      0.00000000
      0.99000000	      0.72239039	     -4.10042323	     -0.14756104	     -0.87326049	      0.90450509	      1.43030058	      0.26259634	      6.46993302	    -17.10114717	    -16.35120240	     -0.28538232	      9.39003834	      6.19913022	     -4.84240273	     19.64082085	      5.10814474	      4.47486279	    -46.96453429	     -0.81968576	      6.04239945	      4.03553538	    -13.34661252	    -10.17372157	      4.83718714	      3.48885153	     13.13096029	    -11.18726136	     18.49297644	     18.04647830	     89.95437384	      0.00000000	      0.00000000	      1.53347978	      8.71747104	    -12.62036229	     18.46759254	     89.95437384	      0.00000000	      0.00000000
